<mxfile host="65bd71144e">
    <diagram id="QASAhiPvGFO7ehi8kXQd" name="Page-1">
        <mxGraphModel dx="1605" dy="731" grid="1" gridSize="10" guides="1" tooltips="1" connect="1" arrows="1" fold="1" page="1" pageScale="1" pageWidth="850" pageHeight="1100" math="0" shadow="0">
            <root>
                <mxCell id="0"/>
                <mxCell id="1" parent="0"/>
                <mxCell id="2" value="" style="rounded=0;whiteSpace=wrap;html=1;" vertex="1" parent="1">
                    <mxGeometry x="80" y="210" width="690" height="100" as="geometry"/>
                </mxCell>
                <mxCell id="3" value="Articles of Associasion design&amp;nbsp;" style="text;html=1;strokeColor=none;fillColor=none;align=center;verticalAlign=middle;whiteSpace=wrap;rounded=0;" vertex="1" parent="1">
                    <mxGeometry x="303" y="10" width="245" height="30" as="geometry"/>
                </mxCell>
                <mxCell id="5" value="AOAs are a common agreement between all the agents in the team, agents vote on this every iteration. This dictatates how agents are supposed to behave.&lt;br&gt;There should be the following fields:&lt;br&gt;Expected Contribution: How much should everyone contribute?&amp;nbsp;&lt;br&gt;Resource Allocation: How much can everyone take? At what condition can people (who) take?&lt;br&gt;Audition cost: The cost to start an adution and vote on an audition&lt;br&gt;Audition rule: How much votes needed to win&lt;br&gt;Audition consequence: What happens if someone lost an audition&amp;nbsp;" style="text;html=1;strokeColor=none;fillColor=none;align=center;verticalAlign=middle;whiteSpace=wrap;rounded=0;" vertex="1" parent="1">
                    <mxGeometry x="170" y="50" width="510" height="160" as="geometry"/>
                </mxCell>
                <mxCell id="7" value="&lt;b&gt;Everything:&lt;/b&gt;&lt;br&gt;Everyone must contribute everything regardless" style="rounded=0;whiteSpace=wrap;html=1;" vertex="1" parent="1">
                    <mxGeometry x="90" y="234" width="120" height="60" as="geometry"/>
                </mxCell>
                <mxCell id="9" style="edgeStyle=none;html=1;" edge="1" parent="1" source="8" target="2">
                    <mxGeometry relative="1" as="geometry"/>
                </mxCell>
                <mxCell id="8" value="How much we expect everyone to contribute?" style="text;html=1;strokeColor=none;fillColor=none;align=center;verticalAlign=middle;whiteSpace=wrap;rounded=0;" vertex="1" parent="1">
                    <mxGeometry x="50" y="210" width="310" height="30" as="geometry"/>
                </mxCell>
                <mxCell id="10" value="&lt;b&gt;British Tax:&lt;/b&gt;&lt;br&gt;Contribute % based on resource gain" style="rounded=0;whiteSpace=wrap;html=1;" vertex="1" parent="1">
                    <mxGeometry x="500" y="234" width="120" height="60" as="geometry"/>
                </mxCell>
                <mxCell id="11" value="Free" style="text;html=1;strokeColor=none;fillColor=none;align=center;verticalAlign=middle;whiteSpace=wrap;rounded=0;" vertex="1" parent="1">
                    <mxGeometry x="720" y="284" width="60" height="30" as="geometry"/>
                </mxCell>
                <mxCell id="12" value="Enforced" style="text;html=1;strokeColor=none;fillColor=none;align=center;verticalAlign=middle;whiteSpace=wrap;rounded=0;" vertex="1" parent="1">
                    <mxGeometry x="86" y="287" width="60" height="30" as="geometry"/>
                </mxCell>
                <mxCell id="13" value="&lt;b&gt;Fixed:&lt;/b&gt;&lt;br&gt;Contribute a fixed amount/% everyone" style="rounded=0;whiteSpace=wrap;html=1;" vertex="1" parent="1">
                    <mxGeometry x="365.5" y="234" width="120" height="60" as="geometry"/>
                </mxCell>
                <mxCell id="14" value="&lt;b&gt;Tax Free:&lt;/b&gt;&lt;br&gt;Contribute only at will" style="rounded=0;whiteSpace=wrap;html=1;" vertex="1" parent="1">
                    <mxGeometry x="630" y="234" width="120" height="60" as="geometry"/>
                </mxCell>
                <mxCell id="15" value="&lt;b&gt;Minimum Wage:&lt;/b&gt;&lt;br&gt;Shave everyone down to a threshold" style="rounded=0;whiteSpace=wrap;html=1;" vertex="1" parent="1">
                    <mxGeometry x="230" y="234" width="120" height="60" as="geometry"/>
                </mxCell>
                <mxCell id="16" value="" style="rounded=0;whiteSpace=wrap;html=1;" vertex="1" parent="1">
                    <mxGeometry x="80.5" y="330" width="690" height="110" as="geometry"/>
                </mxCell>
                <mxCell id="17" value="Text" style="text;html=1;strokeColor=none;fillColor=none;align=center;verticalAlign=middle;whiteSpace=wrap;rounded=0;" vertex="1" parent="1">
                    <mxGeometry x="380" y="480" width="60" height="30" as="geometry"/>
                </mxCell>
                <mxCell id="18" value="Resource Allocation to Whom&amp;nbsp;" style="text;html=1;strokeColor=none;fillColor=none;align=center;verticalAlign=middle;whiteSpace=wrap;rounded=0;" vertex="1" parent="1">
                    <mxGeometry x="67" y="328" width="283" height="30" as="geometry"/>
                </mxCell>
                <mxCell id="19" value="&lt;b&gt;Average:&lt;/b&gt;&lt;br&gt;Everyone gets something" style="rounded=0;whiteSpace=wrap;html=1;" vertex="1" parent="1">
                    <mxGeometry x="365.5" y="358" width="120" height="60" as="geometry"/>
                </mxCell>
                <mxCell id="21" value="&lt;b&gt;Lifesaver:&lt;/b&gt;&lt;br&gt;to people less than average" style="rounded=0;whiteSpace=wrap;html=1;" vertex="1" parent="1">
                    <mxGeometry x="630" y="358" width="120" height="60" as="geometry"/>
                </mxCell>
                <mxCell id="22" value="&lt;b&gt;No Restriction&lt;/b&gt;:&lt;br&gt;Anyone takes&amp;nbsp;" style="rounded=0;whiteSpace=wrap;html=1;" vertex="1" parent="1">
                    <mxGeometry x="100" y="358" width="120" height="60" as="geometry"/>
                </mxCell>
                <mxCell id="23" value="First come fist served" style="text;html=1;strokeColor=none;fillColor=none;align=center;verticalAlign=middle;whiteSpace=wrap;rounded=0;" vertex="1" parent="1">
                    <mxGeometry x="48" y="410" width="224" height="30" as="geometry"/>
                </mxCell>
                <mxCell id="24" value="Managed" style="text;html=1;strokeColor=none;fillColor=none;align=center;verticalAlign=middle;whiteSpace=wrap;rounded=0;" vertex="1" parent="1">
                    <mxGeometry x="578" y="410" width="224" height="30" as="geometry"/>
                </mxCell>
                <mxCell id="25" value="&lt;b&gt;Contribution:&lt;/b&gt;&lt;br&gt;To people who contributed more" style="rounded=0;whiteSpace=wrap;html=1;" vertex="1" parent="1">
                    <mxGeometry x="500" y="358" width="120" height="60" as="geometry"/>
                </mxCell>
                <mxCell id="26" value="" style="rounded=0;whiteSpace=wrap;html=1;" vertex="1" parent="1">
                    <mxGeometry x="80" y="450" width="690" height="100" as="geometry"/>
                </mxCell>
                <mxCell id="27" value="How much ppl can take" style="text;html=1;strokeColor=none;fillColor=none;align=center;verticalAlign=middle;whiteSpace=wrap;rounded=0;" vertex="1" parent="1">
                    <mxGeometry x="80" y="450" width="170" height="30" as="geometry"/>
                </mxCell>
                <mxCell id="28" value="&lt;b&gt;No Restriction&lt;/b&gt;:&lt;br&gt;&amp;nbsp;any amount" style="rounded=0;whiteSpace=wrap;html=1;" vertex="1" parent="1">
                    <mxGeometry x="100" y="480" width="120" height="60" as="geometry"/>
                </mxCell>
                <mxCell id="20" value="&lt;b&gt;Cap:&lt;/b&gt;&lt;br&gt;There is a max amoint ppl can get" style="rounded=0;whiteSpace=wrap;html=1;" vertex="1" parent="1">
                    <mxGeometry x="230" y="480" width="120" height="60" as="geometry"/>
                </mxCell>
                <mxCell id="29" value="&lt;b&gt;Average:&lt;/b&gt;&lt;br&gt;split up&amp;nbsp; evently" style="rounded=0;whiteSpace=wrap;html=1;" vertex="1" parent="1">
                    <mxGeometry x="364" y="480" width="120" height="60" as="geometry"/>
                </mxCell>
                <mxCell id="30" value="&lt;b&gt;Fund&lt;/b&gt;:&lt;br&gt;Boost as many ppl to a threshold" style="rounded=0;whiteSpace=wrap;html=1;" vertex="1" parent="1">
                    <mxGeometry x="630" y="480" width="120" height="60" as="geometry"/>
                </mxCell>
                <mxCell id="31" value="&lt;b&gt;Contribution:&lt;/b&gt;&lt;br&gt;based on who contributed more" style="rounded=0;whiteSpace=wrap;html=1;" vertex="1" parent="1">
                    <mxGeometry x="500" y="480" width="120" height="60" as="geometry"/>
                </mxCell>
                <mxCell id="32" value="&lt;b&gt;Ban:&lt;/b&gt;&lt;br&gt;Ban agent who failed an audit" style="rounded=0;whiteSpace=wrap;html=1;" vertex="1" parent="1">
                    <mxGeometry x="578" y="310" width="120" height="60" as="geometry"/>
                </mxCell>
                <mxCell id="33" value="Q:&lt;br&gt;Does messages arrive at the same time? Would the AOA rank people's requests and then use this for transactions?" style="rounded=0;whiteSpace=wrap;html=1;" vertex="1" parent="1">
                    <mxGeometry y="10" width="170" height="100" as="geometry"/>
                </mxCell>
            </root>
        </mxGraphModel>
    </diagram>
</mxfile>